<svg xmlns="http://www.w3.org/2000/svg" width="200" height="100" viewBox="0 0 200 100">
  <path d="M96.2,20.0 L102.5,20.0 M96.2,40.9 L102.5,40.9 M98.8,69.8 L105.0,69.8 M99.1,78.4 L105.3,78.4 M96.2,40.9 L96.2,39.4 M98.8,69.8 L98.8,68.3 M105.0,69.8 L105.0,68.3 M99.1,78.4 L99.1,76.9 M105.3,80.0 L105.3,78.4 M94.7,57.6 L101.5,57.6 M101.5,57.6 L104.6,55.3 M96.2,23.7 L102.5,23.7 M96.2,36.5 L102.5,36.5 M96.2,36.5 L96.2,34.9 M96.2,45.7 L102.5,45.7 M96.2,45.7 L96.2,44.2" stroke="#2c3e50" stroke-width="2" stroke-linecap="round" stroke-linejoin="round" fill="none"/>
  <text x="100.0" y="35.0" text-anchor="middle" font-family="新細明體, PMingLiU, serif" font-size="12" fill="#2c3e50">{param1}</text>
  <text x="100.0" y="95.0" text-anchor="middle" font-family="新細明體, PMingLiU, serif" font-size="12" fill="#2c3e50">{total}</text>
</svg>
